<svg xmlns="http://www.w3.org/2000/svg" width="1523" height="488" fill="none" viewBox="0 0 1523 488"><path fill="#000" d="M1469.87 0H53.1279C23.7862 0 0 23.7484 0 53.0435V434.957C0 464.252 23.7862 488 53.1279 488H1469.87C1499.21 488 1523 464.252 1523 434.957V53.0435C1523 23.7484 1499.21 0 1469.87 0Z"/><path fill="#F05133" d="M255.137 50.0328C245 39.9022 228.544 39.9022 218.394 50.0328L181.81 86.562L228.216 132.894C239.004 129.257 251.369 131.695 259.965 140.279C268.605 148.916 271.029 161.367 267.296 172.174L312.022 216.829C322.843 213.106 335.328 215.512 343.968 224.154C356.048 236.211 356.048 255.748 343.968 267.808C331.886 279.873 312.318 279.873 300.23 267.808C291.147 258.733 288.9 245.408 293.5 234.235L251.788 192.589L251.784 302.18C254.729 303.635 257.509 305.578 259.963 308.018C272.039 320.074 272.039 339.607 259.963 351.683C247.883 363.739 228.306 363.739 216.239 351.683C204.161 339.608 204.161 320.075 216.239 308.018C219.224 305.043 222.677 302.791 226.363 301.282V190.672C222.676 189.169 219.226 186.934 216.237 183.936C207.088 174.809 204.884 161.403 209.576 150.186L163.83 104.505L43.031 225.108C32.8811 235.247 32.8811 251.676 43.031 261.807L219.21 437.696C229.353 447.827 245.803 447.827 255.961 437.696L431.325 262.638C441.472 252.503 441.472 236.069 431.325 225.936"/><path fill="#FAFAFA" d="M591.12 239H602.48V281.72C597.253 286.307 591.067 289.827 583.92 292.28C576.773 294.733 569.253 295.96 561.36 295.96C550.16 295.96 540.08 293.507 531.12 288.6C522.16 283.693 515.12 276.92 510 268.28C504.88 259.533 502.32 249.773 502.32 239C502.32 228.227 504.88 218.52 510 209.88C515.12 201.133 522.16 194.307 531.12 189.4C540.08 184.493 550.213 182.04 561.52 182.04C570.053 182.04 577.893 183.427 585.04 186.2C592.187 188.867 598.213 192.867 603.12 198.2L595.76 205.72C586.907 196.973 575.653 192.6 562 192.6C552.933 192.6 544.72 194.627 537.36 198.68C530.107 202.627 524.4 208.173 520.24 215.32C516.08 222.36 514 230.253 514 239C514 247.747 516.08 255.64 520.24 262.68C524.4 269.72 530.107 275.267 537.36 279.32C544.613 283.373 552.773 285.4 561.84 285.4C573.36 285.4 583.12 282.52 591.12 276.76V239ZM633.59 210.84H644.95V295H633.59V210.84ZM639.35 192.44C637.003 192.44 635.03 191.64 633.43 190.04C631.83 188.44 631.03 186.52 631.03 184.28C631.03 182.147 631.83 180.28 633.43 178.68C635.03 177.08 637.003 176.28 639.35 176.28C641.697 176.28 643.67 177.08 645.27 178.68C646.87 180.173 647.67 181.987 647.67 184.12C647.67 186.467 646.87 188.44 645.27 190.04C643.67 191.64 641.697 192.44 639.35 192.44ZM720.879 289.88C718.745 291.8 716.079 293.293 712.879 294.36C709.785 295.32 706.532 295.8 703.119 295.8C695.225 295.8 689.145 293.667 684.879 289.4C680.612 285.133 678.479 279.107 678.479 271.32V220.44H663.439V210.84H678.479V192.44H689.839V210.84H715.439V220.44H689.839V270.68C689.839 275.693 691.065 279.533 693.519 282.2C696.079 284.76 699.705 286.04 704.399 286.04C706.745 286.04 708.985 285.667 711.119 284.92C713.359 284.173 715.279 283.107 716.879 281.72L720.879 289.88ZM785.834 183H797.674V295H785.834V183ZM874.595 210.2C885.155 210.2 893.528 213.293 899.715 219.48C906.008 225.56 909.155 234.467 909.155 246.2V295H897.795V247.32C897.795 238.573 895.608 231.907 891.235 227.32C886.862 222.733 880.622 220.44 872.515 220.44C863.448 220.44 856.248 223.16 850.915 228.6C845.688 233.933 843.075 241.347 843.075 250.84V295H831.715V210.84H842.595V226.36C845.688 221.24 849.955 217.293 855.395 214.52C860.942 211.64 867.342 210.2 874.595 210.2ZM984.316 289.88C982.183 291.8 979.516 293.293 976.316 294.36C973.223 295.32 969.97 295.8 966.556 295.8C958.663 295.8 952.583 293.667 948.316 289.4C944.05 285.133 941.916 279.107 941.916 271.32V220.44H926.876V210.84H941.916V192.44H953.276V210.84H978.876V220.44H953.276V270.68C953.276 275.693 954.503 279.533 956.956 282.2C959.516 284.76 963.143 286.04 967.836 286.04C970.183 286.04 972.423 285.667 974.556 284.92C976.796 284.173 978.716 283.107 980.316 281.72L984.316 289.88ZM1075.31 256.44H1004.91C1005.55 265.187 1008.91 272.28 1014.99 277.72C1021.07 283.053 1028.75 285.72 1038.03 285.72C1043.25 285.72 1048.05 284.813 1052.43 283C1056.8 281.08 1060.59 278.307 1063.79 274.68L1070.19 282.04C1066.45 286.52 1061.76 289.933 1056.11 292.28C1050.56 294.627 1044.43 295.8 1037.71 295.8C1029.07 295.8 1021.39 293.987 1014.67 290.36C1008.05 286.627 1002.88 281.507 999.148 275C995.414 268.493 993.548 261.133 993.548 252.92C993.548 244.707 995.308 237.347 998.828 230.84C1002.45 224.333 1007.36 219.267 1013.55 215.64C1019.84 212.013 1026.88 210.2 1034.67 210.2C1042.45 210.2 1049.44 212.013 1055.63 215.64C1061.81 219.267 1066.67 224.333 1070.19 230.84C1073.71 237.24 1075.47 244.6 1075.47 252.92L1075.31 256.44ZM1034.67 219.96C1026.56 219.96 1019.73 222.573 1014.19 227.8C1008.75 232.92 1005.65 239.64 1004.91 247.96H1064.59C1063.84 239.64 1060.69 232.92 1055.15 227.8C1049.71 222.573 1042.88 219.96 1034.67 219.96ZM1109.47 227.32C1112.14 221.667 1116.08 217.4 1121.31 214.52C1126.64 211.64 1133.2 210.2 1140.99 210.2V221.24L1138.27 221.08C1129.42 221.08 1122.48 223.8 1117.47 229.24C1112.46 234.68 1109.95 242.307 1109.95 252.12V295H1098.59V210.84H1109.47V227.32ZM1204.44 210.2C1215 210.2 1223.37 213.293 1229.56 219.48C1235.85 225.56 1239 234.467 1239 246.2V295H1227.64V247.32C1227.64 238.573 1225.45 231.907 1221.08 227.32C1216.71 222.733 1210.47 220.44 1202.36 220.44C1193.29 220.44 1186.09 223.16 1180.76 228.6C1175.53 233.933 1172.92 241.347 1172.92 250.84V295H1161.56V210.84H1172.44V226.36C1175.53 221.24 1179.8 217.293 1185.24 214.52C1190.79 211.64 1197.19 210.2 1204.44 210.2ZM1299.28 210.2C1310.27 210.2 1318.69 212.973 1324.56 218.52C1330.43 223.96 1333.36 232.067 1333.36 242.84V295H1322.48V281.88C1319.92 286.253 1316.13 289.667 1311.12 292.12C1306.21 294.573 1300.35 295.8 1293.52 295.8C1284.13 295.8 1276.67 293.56 1271.12 289.08C1265.57 284.6 1262.8 278.68 1262.8 271.32C1262.8 264.173 1265.36 258.413 1270.48 254.04C1275.71 249.667 1283.97 247.48 1295.28 247.48H1322V242.36C1322 235.107 1319.97 229.613 1315.92 225.88C1311.87 222.04 1305.95 220.12 1298.16 220.12C1292.83 220.12 1287.71 221.027 1282.8 222.84C1277.89 224.547 1273.68 226.947 1270.16 230.04L1265.04 221.56C1269.31 217.933 1274.43 215.16 1280.4 213.24C1286.37 211.213 1292.67 210.2 1299.28 210.2ZM1295.28 286.84C1301.68 286.84 1307.17 285.4 1311.76 282.52C1316.35 279.533 1319.76 275.267 1322 269.72V255.96H1295.6C1281.2 255.96 1274 260.973 1274 271C1274 275.907 1275.87 279.8 1279.6 282.68C1283.33 285.453 1288.56 286.84 1295.28 286.84ZM1364.22 176.28H1375.58V295H1364.22V176.28ZM1429.74 295.8C1422.92 295.8 1416.36 294.84 1410.06 292.92C1403.88 290.893 1399.02 288.387 1395.5 285.4L1400.62 276.44C1404.14 279.213 1408.57 281.507 1413.9 283.32C1419.24 285.027 1424.78 285.88 1430.54 285.88C1438.22 285.88 1443.88 284.707 1447.5 282.36C1451.24 279.907 1453.1 276.493 1453.1 272.12C1453.1 269.027 1452.09 266.627 1450.06 264.92C1448.04 263.107 1445.48 261.773 1442.38 260.92C1439.29 259.96 1435.18 259.053 1430.06 258.2C1423.24 256.92 1417.74 255.64 1413.58 254.36C1409.42 252.973 1405.85 250.68 1402.86 247.48C1399.98 244.28 1398.54 239.853 1398.54 234.2C1398.54 227.16 1401.48 221.4 1407.34 216.92C1413.21 212.44 1421.37 210.2 1431.82 210.2C1437.26 210.2 1442.7 210.947 1448.14 212.44C1453.58 213.827 1458.06 215.693 1461.58 218.04L1456.62 227.16C1449.69 222.36 1441.42 219.96 1431.82 219.96C1424.57 219.96 1419.08 221.24 1415.34 223.8C1411.72 226.36 1409.9 229.72 1409.9 233.88C1409.9 237.08 1410.92 239.64 1412.94 241.56C1415.08 243.48 1417.69 244.92 1420.78 245.88C1423.88 246.733 1428.14 247.64 1433.58 248.6C1440.3 249.88 1445.69 251.16 1449.74 252.44C1453.8 253.72 1457.26 255.907 1460.14 259C1463.02 262.093 1464.46 266.36 1464.46 271.8C1464.46 279.16 1461.37 285.027 1455.18 289.4C1449.1 293.667 1440.62 295.8 1429.74 295.8Z"/></svg>